# xmcd CD database file
#
# Track frame offsets:
#	150
#	5902
#	20382
#	34423
#	49219
#	69541
#	88339
#	110295
#	127826
#	138037
#	162723
#	183095
#	196537
#
# Disc length: 2862 seconds
#
# Revision: 3
# Processed by: cddbd v1.5.1PL2 Copyright (c) Steve Scherf et al.
# Submitted via: CDex 1.51
#
DISCID=ab0b2c0d
DTITLE=Gynt Peer - Fairytale
DYEAR=2002
DGENRE=Blues
TTITLE0=Welcome
TTITLE1=Freddies Song
TTITLE2=Summer Tale
TTITLE3=Please Please Babe
TTITLE4=Homegrown Juice
TTITLE5=To Be Your Man
TTITLE6=Sam's Cafe
TTITLE7=Good Lord
TTITLE8=Hallingcaster
TTITLE9=I Can Tell You
TTITLE10=Livin' The Live Ain't Easy
TTITLE11=The Hunt
TTITLE12=Fairytale
EXTD=YEAR: 2002
EXTT0=
EXTT1=
EXTT2=
EXTT3=
EXTT4=
EXTT5=
EXTT6=
EXTT7=
EXTT8=
EXTT9=
EXTT10=
EXTT11=
EXTT12=
PLAYORDER=
